<svg xmlns="http://www.w3.org/2000/svg" version="1.1" viewBox="-5.0 -10.0 110.0 135.0">
 <path d="m87.797 29.547h-75.141c-3.0742 0-5.5703-2.4922-5.5781-5.5703v-12.195c0.003906-3.082 2.5-5.5781 5.5781-5.5781h75.141v-0.003906c3.082 0.007812 5.5742 2.5 5.5781 5.582v12.195c-0.003906 3.0781-2.5 5.5703-5.5781 5.5703zm-75.141-20.328c-1.4102 0.003906-2.5547 1.1484-2.5547 2.5625v12.195c0 1.4102 1.1445 2.5547 2.5547 2.5547h75.141c1.4141 0 2.5586-1.1445 2.5625-2.5547v-12.195c-0.003906-1.4141-1.1484-2.5586-2.5625-2.5625z"/>
 <path d="m19.277 16.051h-1.0977c-0.83594 0-1.5117-0.67578-1.5117-1.5117 0-0.83203 0.67578-1.5078 1.5117-1.5078h1.0977c0.83203 0 1.5117 0.67578 1.5117 1.5078 0 0.83594-0.67969 1.5117-1.5117 1.5117z"/>
 <path d="m26.105 16.051h-1.1055c-0.83203 0-1.5078-0.67578-1.5078-1.5117 0-0.83203 0.67578-1.5078 1.5078-1.5078h1.1016c0.83203 0 1.5078 0.67578 1.5078 1.5078 0 0.83594-0.67578 1.5117-1.5078 1.5117z"/>
 <path d="m32.938 16.051h-1.1016c-0.83203 0-1.5078-0.67578-1.5078-1.5117 0-0.83203 0.67578-1.5078 1.5078-1.5078h1.1016c0.83203 0 1.5078 0.67578 1.5078 1.5078 0 0.83594-0.67578 1.5117-1.5078 1.5117z"/>
 <path d="m39.766 16.051h-1.0938c-0.83203 0-1.5078-0.67578-1.5078-1.5117 0-0.83203 0.67578-1.5078 1.5078-1.5078h1.1016c0.83203 0 1.5078 0.67578 1.5078 1.5078 0 0.83594-0.67578 1.5117-1.5078 1.5117z"/>
 <path d="m46.598 16.051h-1.0898c-0.83203 0-1.5078-0.67578-1.5078-1.5117 0-0.83203 0.67578-1.5078 1.5078-1.5078h1.0938c0.83203 0 1.5078 0.67578 1.5078 1.5078 0 0.83594-0.67578 1.5117-1.5078 1.5117z"/>
 <path d="m19.277 22.719h-1.0977c-0.83594 0-1.5117-0.67578-1.5117-1.5078 0-0.83594 0.67578-1.5117 1.5117-1.5117h1.0977c0.83203 0 1.5117 0.67578 1.5117 1.5078 0 0.83594-0.67969 1.5117-1.5117 1.5117z"/>
 <path d="m26.105 22.719h-1.1055c-0.83203 0-1.5078-0.67578-1.5078-1.5078 0-0.83594 0.67578-1.5117 1.5078-1.5117h1.1016c0.83203 0 1.5078 0.67578 1.5078 1.5078 0 0.83594-0.67578 1.5117-1.5078 1.5117z"/>
 <path d="m32.938 22.719h-1.1016c-0.83203 0-1.5078-0.67578-1.5078-1.5078 0-0.83594 0.67578-1.5117 1.5078-1.5117h1.1016c0.83203 0 1.5078 0.67578 1.5078 1.5078 0 0.83594-0.67578 1.5117-1.5078 1.5117z"/>
 <path d="m39.766 22.719h-1.0938c-0.83203 0-1.5078-0.67578-1.5078-1.5078 0-0.83594 0.67578-1.5117 1.5078-1.5117h1.1016c0.83203 0 1.5078 0.67578 1.5078 1.5078 0 0.83594-0.67578 1.5117-1.5078 1.5117z"/>
 <path d="m46.598 22.719h-1.0898c-0.83203 0-1.5078-0.67578-1.5078-1.5078 0-0.83594 0.67578-1.5117 1.5078-1.5117h1.0938c0.83203 0 1.5078 0.67578 1.5078 1.5078 0 0.83594-0.67578 1.5117-1.5078 1.5117z"/>
 <path d="m77.148 24.508c-2.6875 0-5.1094-1.6172-6.1367-4.1016-1.0273-2.4805-0.45703-5.3359 1.4453-7.2344 1.9023-1.8984 4.7578-2.4648 7.2383-1.4336 2.4805 1.0312 4.0977 3.4531 4.0938 6.1406-0.003906 3.6641-2.9766 6.6328-6.6406 6.6289zm0-10.25c-1.4609 0-2.7773 0.87891-3.3398 2.2305-0.55859 1.3516-0.25 2.9062 0.78516 3.9375 1.0312 1.0352 2.5859 1.3438 3.9375 0.78516 1.3516-0.5625 2.2305-1.8789 2.2305-3.3398-0.003907-1.9961-1.6172-3.6094-3.6133-3.6133z"/>
 <path d="m77.164 19.387c-0.41016 0.015625-0.80859-0.13281-1.1055-0.41797-0.29688-0.28125-0.46484-0.67578-0.46875-1.082 0-0.41016 0.16406-0.80469 0.45703-1.0898s0.69141-0.44141 1.1016-0.42969h0.011718c0.41016-0.011719 0.80859 0.14062 1.1016 0.42578 0.29688 0.28125 0.46094 0.67578 0.46094 1.0859s-0.16406 0.80078-0.46094 1.0859c-0.29297 0.28516-0.69141 0.4375-1.1016 0.42188z"/>
 <path d="m87.797 56.039h-75.141c-3.0781-0.003906-5.5742-2.5-5.5781-5.5781v-12.191c0.003906-3.0781 2.5-5.5742 5.5781-5.5781h75.141c3.082 0.003906 5.5742 2.5 5.5781 5.5781v12.191c-0.003906 3.0781-2.4961 5.5742-5.5781 5.5781zm-75.141-20.328c-1.4102 0-2.5547 1.1445-2.5547 2.5586v12.191c0 1.4141 1.1445 2.5586 2.5547 2.5586h75.141c1.4141 0 2.5586-1.1445 2.5625-2.5586v-12.191c-0.003906-1.4141-1.1484-2.5586-2.5625-2.5586z"/>
 <path d="m19.277 42.539h-1.0977c-0.83594 0-1.5117-0.67578-1.5117-1.5078s0.67578-1.5078 1.5117-1.5078h1.0977c0.83203 0 1.5117 0.67578 1.5117 1.5078s-0.67969 1.5078-1.5117 1.5078z"/>
 <path d="m26.105 42.539h-1.1055c-0.83203 0-1.5078-0.67578-1.5078-1.5078s0.67578-1.5078 1.5078-1.5078h1.1016c0.83203 0 1.5078 0.67578 1.5078 1.5078s-0.67578 1.5078-1.5078 1.5078z"/>
 <path d="m32.938 42.539h-1.1016c-0.83203 0-1.5078-0.67578-1.5078-1.5078s0.67578-1.5078 1.5078-1.5078h1.1016c0.83203 0 1.5078 0.67578 1.5078 1.5078s-0.67578 1.5078-1.5078 1.5078z"/>
 <path d="m39.766 42.539h-1.0938c-0.83203 0-1.5078-0.67578-1.5078-1.5078s0.67578-1.5078 1.5078-1.5078h1.1016c0.83203 0 1.5078 0.67578 1.5078 1.5078s-0.67578 1.5078-1.5078 1.5078z"/>
 <path d="m46.598 42.539h-1.0898c-0.83203 0-1.5078-0.67578-1.5078-1.5078s0.67578-1.5078 1.5078-1.5078h1.0938c0.83203 0 1.5078 0.67578 1.5078 1.5078s-0.67578 1.5078-1.5078 1.5078z"/>
 <path d="m19.277 49.219h-1.0977c-0.83594 0-1.5117-0.67578-1.5117-1.5078 0-0.83594 0.67578-1.5117 1.5117-1.5117h1.0977c0.83203 0 1.5117 0.67578 1.5117 1.5117 0 0.83203-0.67969 1.5078-1.5117 1.5078z"/>
 <path d="m26.105 49.219h-1.1055c-0.83203 0-1.5078-0.67578-1.5078-1.5078 0-0.83594 0.67578-1.5117 1.5078-1.5117h1.1016c0.83203 0 1.5078 0.67578 1.5078 1.5117 0 0.83203-0.67578 1.5078-1.5078 1.5078z"/>
 <path d="m32.938 49.219h-1.1016c-0.83203 0-1.5078-0.67578-1.5078-1.5078 0-0.83594 0.67578-1.5117 1.5078-1.5117h1.1016c0.83203 0 1.5078 0.67578 1.5078 1.5117 0 0.83203-0.67578 1.5078-1.5078 1.5078z"/>
 <path d="m39.766 49.219h-1.0938c-0.83203 0-1.5078-0.67578-1.5078-1.5078 0-0.83594 0.67578-1.5117 1.5078-1.5117h1.1016c0.83203 0 1.5078 0.67578 1.5078 1.5117 0 0.83203-0.67578 1.5078-1.5078 1.5078z"/>
 <path d="m46.598 49.219h-1.0898c-0.83203 0-1.5078-0.67578-1.5078-1.5078 0-0.83594 0.67578-1.5117 1.5078-1.5117h1.0938c0.83203 0 1.5078 0.67578 1.5078 1.5117 0 0.83203-0.67578 1.5078-1.5078 1.5078z"/>
 <path d="m77.148 51c-2.6875 0-5.1055-1.6172-6.1367-4.0977-1.0273-2.4844-0.45703-5.3398 1.4414-7.2383 1.8984-1.8984 4.7539-2.4688 7.2383-1.4414 2.4805 1.0312 4.0977 3.4492 4.0977 6.1367 0 3.668-2.9727 6.6406-6.6406 6.6406zm0-10.25c-1.4609 0-2.7812 0.87891-3.3398 2.2305-0.5625 1.3516-0.25391 2.9062 0.78125 3.9414 1.0312 1.0312 2.5859 1.3438 3.9375 0.78516 1.3516-0.55859 2.2344-1.8789 2.2344-3.3398 0-1.9961-1.6172-3.6133-3.6133-3.6172z"/>
 <path d="m77.164 45.875c-0.41016 0.019531-0.80859-0.13281-1.1055-0.41797-0.29688-0.28125-0.46484-0.67188-0.46484-1.082-0.003906-0.41016 0.16406-0.80469 0.45703-1.0898s0.69141-0.4375 1.0977-0.42578h0.015624c0.40625-0.015625 0.80469 0.13672 1.1016 0.42188 0.29297 0.28516 0.46094 0.67578 0.46094 1.0859 0 0.41016-0.16797 0.80469-0.46094 1.0859-0.29688 0.28516-0.69531 0.4375-1.1016 0.42188z"/>
 <path d="m87.797 82.531h-75.141c-3.0781-0.003906-5.5703-2.5-5.5781-5.5781v-12.199h0.003906c0-3.0781 2.4961-5.5742 5.5742-5.5742h75.141c3.0781 0.003906 5.5742 2.4961 5.5781 5.5703v12.203c-0.003906 3.0781-2.5 5.5703-5.5781 5.5781zm-75.141-20.332c-1.4102 0-2.5547 1.1445-2.5547 2.5547v12.199c0 1.4141 1.1445 2.5586 2.5547 2.5586h75.141c1.4141 0 2.5586-1.1445 2.5625-2.5586v-12.199c-0.003906-1.4102-1.1484-2.5547-2.5625-2.5547z"/>
 <path d="m19.277 69.031h-1.0977c-0.83594 0-1.5117-0.67578-1.5117-1.5078 0-0.83594 0.67578-1.5117 1.5117-1.5117h1.0977c0.83203 0 1.5117 0.67578 1.5117 1.5117 0 0.83203-0.67969 1.5078-1.5117 1.5078z"/>
 <path d="m26.105 69.031h-1.1055c-0.80469-0.039062-1.4336-0.70312-1.4336-1.5078 0-0.80469 0.62891-1.4688 1.4336-1.5078h1.1016c0.83203 0 1.5078 0.67578 1.5078 1.5078 0 0.83594-0.67578 1.5117-1.5078 1.5117z"/>
 <path d="m32.938 69.031h-1.1016c-0.41406 0.019531-0.81641-0.12891-1.1172-0.41406-0.30078-0.28516-0.46875-0.67969-0.46875-1.0938 0-0.41406 0.16797-0.80859 0.46875-1.0938 0.30078-0.28516 0.70312-0.43359 1.1172-0.41406h1.1016c0.83203 0 1.5078 0.67578 1.5078 1.5078 0 0.83594-0.67578 1.5117-1.5078 1.5117z"/>
 <path d="m39.766 69.031h-1.0938c-0.80469-0.039062-1.4336-0.70312-1.4336-1.5078 0-0.80469 0.62891-1.4688 1.4336-1.5078h1.1016c0.83203 0 1.5078 0.67578 1.5078 1.5078 0 0.83594-0.67578 1.5117-1.5078 1.5117z"/>
 <path d="m46.598 69.031h-1.0898c-0.80469-0.039062-1.4336-0.70312-1.4336-1.5078 0-0.80469 0.62891-1.4688 1.4336-1.5078h1.0938c0.83203 0 1.5078 0.67578 1.5078 1.5078 0 0.83594-0.67578 1.5117-1.5078 1.5117z"/>
 <path d="m19.277 75.699h-1.0977c-0.83594 0-1.5117-0.67578-1.5117-1.5117 0-0.83203 0.67578-1.5078 1.5117-1.5078h1.0977c0.83203 0 1.5117 0.67578 1.5117 1.5078 0 0.83594-0.67969 1.5117-1.5117 1.5117z"/>
 <path d="m26.105 75.699h-1.1055c-0.83203 0-1.5078-0.67578-1.5078-1.5117 0-0.83203 0.67578-1.5078 1.5078-1.5078h1.1016c0.83203 0 1.5078 0.67578 1.5078 1.5078 0 0.83594-0.67578 1.5117-1.5078 1.5117z"/>
 <path d="m32.938 75.699h-1.1016c-0.83203 0-1.5078-0.67578-1.5078-1.5117 0-0.83203 0.67578-1.5078 1.5078-1.5078h1.1016c0.83203 0 1.5078 0.67578 1.5078 1.5078 0 0.83594-0.67578 1.5117-1.5078 1.5117z"/>
 <path d="m39.766 75.699h-1.0938c-0.83203 0-1.5078-0.67578-1.5078-1.5117 0-0.83203 0.67578-1.5078 1.5078-1.5078h1.1016c0.83203 0 1.5078 0.67578 1.5078 1.5078 0 0.83594-0.67578 1.5117-1.5078 1.5117z"/>
 <path d="m46.598 75.699h-1.0898c-0.83203 0-1.5078-0.67578-1.5078-1.5117 0-0.83203 0.67578-1.5078 1.5078-1.5078h1.0938c0.83203 0 1.5078 0.67578 1.5078 1.5078 0 0.83594-0.67578 1.5117-1.5078 1.5117z"/>
 <path d="m77.148 77.484c-2.6875 0-5.1055-1.6172-6.1367-4.0977-1.0273-2.4844-0.45703-5.3398 1.4414-7.2383 1.8984-1.8984 4.7539-2.4688 7.2383-1.4414 2.4805 1.0312 4.0977 3.4492 4.0977 6.1367 0 3.668-2.9727 6.6406-6.6406 6.6406zm0-10.246c-1.4609 0-2.7773 0.87891-3.3398 2.2305-0.55859 1.3516-0.25 2.9062 0.78516 3.9375 1.0312 1.0352 2.5859 1.3438 3.9375 0.78516 1.3516-0.5625 2.2305-1.8789 2.2305-3.3398-0.003907-1.9961-1.6172-3.6094-3.6133-3.6133z"/>
 <path d="m77.164 72.359c-0.40234 0.003906-0.78906-0.15234-1.0742-0.4375-0.28516-0.28125-0.44531-0.66406-0.44922-1.0664 0-0.83594 0.67188-1.5156 1.5078-1.5195h0.011718c0.41016-0.015626 0.80859 0.13672 1.1016 0.42187 0.29688 0.28516 0.46094 0.67578 0.46094 1.0859s-0.16406 0.80469-0.46094 1.0859c-0.29297 0.28516-0.69141 0.4375-1.1016 0.42187z"/>
 <path d="m35.852 35.711c-0.83594 0-1.5078-0.67578-1.5078-1.5078v-6.1641c0.027344-0.8125 0.69531-1.457 1.5078-1.457s1.4805 0.64453 1.5078 1.457v6.1641c0 0.39844-0.16016 0.78125-0.44141 1.0664-0.28516 0.28125-0.66797 0.44141-1.0664 0.44141zm-9.9102 0h-0.003906c-0.39844 0-0.78125-0.16016-1.0664-0.44141-0.28125-0.28516-0.44141-0.66797-0.44141-1.0664v-6.1641c0-0.83203 0.67578-1.5078 1.5078-1.5078 0.83594 0 1.5117 0.67578 1.5117 1.5078v6.1641c0 0.39844-0.16016 0.78125-0.44141 1.0664-0.28516 0.28125-0.66797 0.44141-1.0703 0.44141z"/>
 <path d="m35.852 62.199c-0.83594 0-1.5078-0.67578-1.5078-1.5078v-6.1602c-0.015625-0.41016 0.13672-0.80859 0.42188-1.1055 0.28125-0.29297 0.67578-0.46094 1.0859-0.46094 0.41016 0 0.80078 0.16797 1.0859 0.46094 0.28516 0.29688 0.4375 0.69531 0.42188 1.1055v6.1641-0.003906c0 0.83203-0.67578 1.5078-1.5078 1.5078zm-9.9102 0h-0.003906c-0.83203 0-1.5078-0.67578-1.5078-1.5078v-6.1602c0-0.83594 0.67578-1.5117 1.5078-1.5117 0.83594 0 1.5117 0.67578 1.5117 1.5117v6.1641-0.003906c0 0.83203-0.67578 1.5078-1.5117 1.5078z"/>
 <path d="m74.516 35.711c-0.39844 0-0.78125-0.16016-1.0664-0.44141-0.28125-0.28516-0.44141-0.66797-0.44141-1.0664v-6.1641c0.027344-0.8125 0.69531-1.457 1.5078-1.457s1.4805 0.64453 1.5078 1.457v6.1641c0 0.83203-0.67188 1.5078-1.5078 1.5078zm-9.9141 0h0.003907c-0.39844 0-0.78516-0.16016-1.0664-0.44141-0.28516-0.28516-0.44531-0.66797-0.44531-1.0664v-6.1641c0-0.83203 0.67969-1.5078 1.5117-1.5078s1.5117 0.67578 1.5117 1.5078v6.1641h-0.003907c0.003907 0.39844-0.15625 0.78125-0.44141 1.0664-0.28125 0.28125-0.66797 0.44141-1.0664 0.44141z"/>
 <path d="m74.516 62.199c-0.83203 0-1.5078-0.67578-1.5078-1.5078v-6.1602c-0.015624-0.41016 0.13672-0.80859 0.42188-1.1055 0.28516-0.29297 0.67578-0.46094 1.0859-0.46094s0.80469 0.16797 1.0859 0.46094c0.28516 0.29688 0.4375 0.69531 0.42188 1.1055v6.1641-0.003906c0 0.83203-0.67188 1.5078-1.5078 1.5078zm-9.9141 0h0.003907c-0.83203 0-1.5078-0.67578-1.5117-1.5078v-6.1602c0-0.83594 0.67969-1.5117 1.5117-1.5117s1.5117 0.67578 1.5117 1.5117v6.1641l-0.003907-0.003906c0 0.83203-0.67578 1.5078-1.5078 1.5078z"/>
 <path d="m73.004 91.188h-15.914c-0.41016 0.015625-0.80859-0.13672-1.1016-0.42188-0.29688-0.28125-0.46094-0.67578-0.46094-1.0859 0-0.41016 0.16406-0.80078 0.46094-1.0859 0.29297-0.28516 0.69141-0.4375 1.1016-0.42188h15.914c0.41016-0.015625 0.80859 0.13672 1.1016 0.42188 0.29688 0.28516 0.46094 0.67578 0.46094 1.0859 0 0.41016-0.16406 0.80469-0.46094 1.0859-0.29297 0.28516-0.69141 0.4375-1.1016 0.42188zm-29.637 0h-15.914c-0.8125-0.027344-1.457-0.69531-1.457-1.5078s0.64453-1.4805 1.457-1.5078h15.906c0.41016-0.015625 0.80859 0.13672 1.1016 0.42188 0.29687 0.28516 0.46094 0.67578 0.46094 1.0859 0 0.41016-0.16406 0.80469-0.46094 1.0859-0.29297 0.28516-0.69141 0.4375-1.1016 0.42188z"/>
 <path d="m50.23 88.117c-0.83203 0-1.5117-0.67969-1.5117-1.5117v-5.5859c0-0.83203 0.67969-1.5117 1.5117-1.5117s1.5117 0.67969 1.5117 1.5117v5.5859c0 0.40234-0.16016 0.78516-0.44531 1.0664-0.28125 0.28516-0.66406 0.44141-1.0664 0.44141z"/>
 <path d="m55.148 94.266h-9.8359c-1.9062-0.003906-3.4492-1.5508-3.4531-3.457v-2.2617c0.003906-1.9062 1.5469-3.4492 3.4531-3.4531h9.8359c1.9023 0.007812 3.4414 1.5508 3.4453 3.4531v2.2617c-0.003906 1.9062-1.543 3.4492-3.4453 3.457zm-9.8359-6.1484c-0.23438 0.003906-0.42578 0.19531-0.42969 0.42969v2.2617c0 0.23828 0.19141 0.43359 0.42969 0.4375h9.8359c0.24219-0.003906 0.43359-0.19922 0.4375-0.4375v-2.2617c-0.007813-0.23828-0.19922-0.42578-0.43359-0.42969z"/>
 <path d="m55.906 23.395c-0.83203 0-1.5078-0.67578-1.5078-1.5117v-8.0156c0-0.83594 0.67578-1.5117 1.5117-1.5117 0.83594 0 1.5117 0.67578 1.5117 1.5117v8.0078c0.003906 0.40234-0.15625 0.78906-0.44141 1.0742-0.28516 0.28906-0.67188 0.44531-1.0742 0.44531z"/>
 <path d="m63.531 23.395c-0.83594 0-1.5117-0.67578-1.5117-1.5117v-8.0156c0-0.83203 0.67578-1.5117 1.5078-1.5117 0.83594 0 1.5117 0.67969 1.5117 1.5117v8.0078c0.003907 0.40234-0.15625 0.78906-0.4375 1.0742-0.28516 0.28516-0.67187 0.44531-1.0703 0.44531z"/>
 <path d="m55.906 49.879c-0.83203 0-1.5078-0.67578-1.5078-1.5117v-8.0078c0-0.83203 0.67578-1.5078 1.5078-1.5078s1.5078 0.67578 1.5078 1.5078v8.0078c0 0.83594-0.67578 1.5117-1.5078 1.5117z"/>
 <path d="m63.531 49.879c-0.83594 0-1.5117-0.67578-1.5117-1.5117v-8.0078c0-0.83203 0.67578-1.5078 1.5078-1.5078 0.83594 0 1.5117 0.67578 1.5117 1.5078v8.0078c0 0.83594-0.67578 1.5117-1.5117 1.5117z"/>
 <path d="m55.906 76.367c-0.83203 0-1.5078-0.67578-1.5078-1.5078v-8.0078c0-0.83594 0.67578-1.5117 1.5078-1.5117s1.5078 0.67578 1.5078 1.5117v8.0078c0 0.83203-0.67578 1.5078-1.5078 1.5078z"/>
 <path d="m63.531 76.367c-0.83594 0-1.5117-0.67578-1.5117-1.5078v-8.0078c0-0.83594 0.67578-1.5117 1.5078-1.5117 0.83594 0 1.5117 0.67578 1.5117 1.5117v8.0078c0 0.83203-0.67578 1.5078-1.5117 1.5078z"/>
<text x="0.0" y="117.5" font-size="5.0" font-weight="bold" font-family="Arbeit Regular, Helvetica, Arial-Unicode, Arial, Sans-serif" fill="#000000">Created by perilous graphic</text><text x="0.0" y="122.5" font-size="5.0" font-weight="bold" font-family="Arbeit Regular, Helvetica, Arial-Unicode, Arial, Sans-serif" fill="#000000">from Noun Project</text></svg>