<svg xmlns="http://www.w3.org/2000/svg" version="1.1" viewBox="-5.0 -10.0 110.0 135.0">
 <path d="m34.719 19.32c0.93359 1.4414 2.4453 2.2695 4.1523 2.2695h1.1523c-0.48438 1.1758-0.75781 2.457-0.75781 3.8047 0 5.5156 4.4766 10 9.9766 10 1.9102 0 3.6953-0.55469 5.2188-1.4922l9.3945 3.4297-5.9258 9.625c-0.78516 0.52344-1.4727 1.2109-1.9883 2.0508-1.6797 2.7188-1.168 6.1797 1.0391 8.3164l-2.4531 3.9883c-0.42188 0.67969-0.20703 1.5703 0.47266 1.9883 0.23438 0.14453 0.5 0.21484 0.75781 0.21484 0.48438 0 0.95703-0.24219 1.2305-0.6875l2.4609-3.9961c0.69922 0.24219 1.4297 0.38672 2.1758 0.38672 2.3359 0 4.4648-1.1914 5.6914-3.1836 0.51562-0.83594 0.82812-1.7578 0.94531-2.707l7.1562-11.594c0.30469-0.49609 0.52734-1.0195 0.67969-1.5664l1.5898-4.3516c0.56641-1.5469 0.5-3.2227-0.19531-4.7227-0.69531-1.4961-1.9258-2.6328-3.4766-3.2031l-15.305-5.6016c-0.078126-0.23828-0.16406-0.47266-0.25781-0.70312h1.1523c1.707 0 3.2227-0.82813 4.1562-2.2734l5.1641-8.0586c0.28516-0.44531 0.30469-1.0117 0.050781-1.4766-0.25391-0.46484-0.74219-0.75391-1.2695-0.75391h-36.949c-0.52734 0-1.0156 0.28906-1.2695 0.75391-0.25391 0.46484-0.23438 1.0312 0.050781 1.4766zm7.4414 6.0742c0-3.9062 3.1797-7.082 7.0859-7.082s7.082 3.1797 7.082 7.082c0 3.918-3.1758 7.1055-7.082 7.1055s-7.0859-3.1875-7.0859-7.1055zm19.469 30.926c-0.69531 0-1.3828-0.19531-1.9805-0.56641-1.7852-1.1016-2.3477-3.4492-1.2422-5.2305 0.69922-1.1328 1.9141-1.8086 3.2461-1.8086 0.69922 0 1.3867 0.19531 1.9844 0.5625 0.86328 0.53125 1.4648 1.3672 1.6914 2.3555 0.23047 0.98828 0.0625 2.0117-0.46875 2.875-0.69922 1.1367-1.9062 1.8125-3.2305 1.8125zm5.8047-7.1523c-0.54688-0.94922-1.3203-1.7578-2.2773-2.3477-0.94922-0.58984-2.0312-0.91016-3.1445-0.97266l5.1523-8.3711c0.003907-0.003906 0.003907-0.007812 0.007813-0.011718l0.36328-0.58984c0.92578-1.4844 2.8906-1.9453 4.3867-1.0273 0.71875 0.4375 1.2227 1.1289 1.418 1.9531 0.20312 0.83594 0.066406 1.6953-0.375 2.418zm7.5586-14.406c-0.43359-0.54297-0.95703-1.0156-1.5625-1.3828-2.6602-1.6289-6.1055-0.96094-7.9883 1.4492l-8.4844-3.0977c1.3828-1.6875 2.2227-3.8359 2.2578-6.1758l13.816 5.0547c1.6758 0.62109 2.543 2.4688 1.9609 4.1523zm-9.918-22.84-3.7344 5.8281c-0.39844 0.61719-0.99609 0.94531-1.7227 0.94531h-3c-1.8242-2.0078-4.4492-3.2773-7.3711-3.2773s-5.5469 1.2695-7.375 3.2773h-3c-0.72656 0-1.3203-0.32812-1.7188-0.94141l-3.7383-5.832zm12.84 61.078 6.4766-3.2383c1.1211-0.57812 2.3086-0.65234 3.5273-0.22266l2.4219 0.85547c0.75391 0.26953 1.5781-0.12891 1.8477-0.88281 0.26953-0.75391-0.12891-1.5781-0.88281-1.8477l-2.4258-0.85547c-1.9727-0.69141-3.9844-0.5625-5.7969 0.37109l-10.586 5.293c-6.3711-4.0703-12.953-6.9922-19.574-8.6797-0.085937-0.019531-0.17188-0.035157-0.25391-0.039063-8.4961-0.59766-16.312-0.63281-23.164-0.10547-0.1875 0.015624-0.36328 0.0625-0.53125 0.14453-5.3711 2.6484-8.9141 4.3945-10.652 5.2539l-2.625-4.9453c-0.75391-1.4531-1.9961-2.4727-3.6055-2.9531l-1.8633-0.53516c-0.76953-0.21875-1.5703 0.22266-1.7891 0.99219-0.22266 0.76953 0.22266 1.5703 0.98828 1.7891l1.8516 0.53125c0.85156 0.25391 1.457 0.74609 1.8594 1.5195l2.2695 4.2852c-4.3789 0.42578-6.5625 0.65234-6.5625 0.65234-0.64844 0.066407-1.1758 0.5625-1.2773 1.2109-0.20703 1.2969-0.54688 2.6953-0.90625 4.1758-1.0977 4.5195-2.2305 9.1875 0.078125 12.312 1.2812 1.7344 3.4727 2.707 6.5195 2.8867 0.027344 0.003906 0.058594 0.003906 0.085938 0.003906h2.8945c0.45703 0 0.88672-0.21484 1.1602-0.58203 0.27344-0.36719 0.35547-0.83984 0.22656-1.2773s-0.19922-0.9375-0.19922-1.4531c0-2.9023 2.3594-5.2617 5.2617-5.2617s5.2617 2.3594 5.2617 5.2617c0 0.46484-0.074219 0.96875-0.21875 1.4531-0.12891 0.4375-0.046875 0.91016 0.22656 1.2773 0.27344 0.36328 0.70312 0.58203 1.1602 0.58203h43.426 0.015625c0.80078 0 1.4453-0.64844 1.4453-1.4453 0-0.20703-0.042968-0.40234-0.12109-0.57812-0.10156-0.39453-0.15234-0.83594-0.15234-1.2852 0-2.9023 2.3594-5.2617 5.2617-5.2617 2.9023 0 5.2617 2.3594 5.2617 5.2617 0 0.51563-0.066406 1.0195-0.19922 1.4531-0.12891 0.4375-0.042969 0.91016 0.23047 1.2773 0.27344 0.36328 0.70312 0.58203 1.1602 0.58203h5.7656c1.8359 0 3.3594-1.3359 3.3945-2.9805 0.25-11.453-9.293-14.234-16.691-14.996zm11.156 7.1484c-1.5938-0.20313-2.8633-0.71875-3.6289-1.5195-0.3125-0.32812-0.53125-0.71484-0.68359-1.1406 1.8047 0.6875 3.2305 1.5703 4.3125 2.6602zm-79.684-3.3672h2.8594c-0.77734 1-1.8477 1.5469-3.2578 1.6836 0.12891-0.55859 0.26562-1.1211 0.39844-1.6836zm81.824 11.293h-4.0703c0.007813-0.14062 0.011719-0.27734 0.011719-0.41797 0-4.4961-3.6562-8.1562-8.1562-8.1562-4.4961 0-8.1562 3.6602-8.1562 8.1562 0 0.14062 0.003906 0.27734 0.011718 0.41797h-40.023c0.007813-0.14062 0.011719-0.27734 0.011719-0.41797 0-4.4961-3.6562-8.1562-8.1562-8.1562-4.4961 0-8.1523 3.6602-8.1523 8.1562 0 0.14062 0.003906 0.27734 0.011719 0.41797h-1.1562c-2.1562-0.13672-3.5703-0.69531-4.3242-1.7148-0.85156-1.1523-0.91016-2.9375-0.62891-4.9727 3.7148-0.074219 6.3125-1.9805 7.543-5.5859 0.14844-0.44141 0.078126-0.92969-0.19141-1.3086-0.27344-0.37891-0.71094-0.60547-1.1758-0.60547h-4.5469c0.050781-0.24609 0.10938-0.49609 0.16016-0.73828 1.3203-0.13281 3.8555-0.38672 7.6094-0.74609 0.050781-0.007813 0.097657-0.019532 0.14453-0.027344 0.027344-0.007812 0.058594-0.007812 0.085938-0.015625 0.09375-0.023437 0.18359-0.054687 0.27344-0.097656 0 0 3.8828-1.9102 11.664-5.75 6.6211-0.48828 14.148-0.44531 22.336 0.11719 6.5117 1.6758 13.004 4.6055 19.285 8.7148 0.007812 0.003906 0.015625 0.007812 0.023437 0.011719 0.058594 0.035156 0.12109 0.058593 0.1875 0.085937 0.058594 0.027344 0.11328 0.058594 0.17578 0.074219 0.0625 0.019531 0.13281 0.023437 0.19922 0.035156 0.058594 0.007813 0.10938 0.027344 0.16797 0.027344 3.6562 0.10547 6.7305 0.42969 9.2852 1 0.078125 1.5742 0.64844 2.957 1.6953 4.0508 1.5703 1.6406 4.1367 2.5156 7.3047 2.5156 0.11328 0 0.23047-0.011719 0.34766-0.011719 0.52734 1.3672 0.76172 2.9453 0.72656 4.7422-0.050781 0.070312-0.26953 0.19922-0.52344 0.19922zm-49.402-21.152c-3.8828-0.066406-7.7422 0.035156-11.344 0.30469-0.28906 0.019532-0.5625 0.12891-0.78906 0.30859-1.6758 1.3242-2.5977 2.1992-3.0859 2.9141-0.42969 0.63672-0.28906 1.4961 0.32031 1.9609 5.0156 3.8359 5.6641 6.0781 5.582 12.957-0.003907 0.38672 0.14453 0.75781 0.41797 1.0352 0.27344 0.27344 0.64453 0.42969 1.0273 0.42969h7.8438c1.3906 0 2.5195-1.1289 2.5195-2.5195v-14.875c0-1.3867-1.1289-2.5156-2.4922-2.5156zm-0.40234 17.016h-6.0195c-0.058594-6-1.0781-9.125-5.4805-12.832 0.30859-0.27734 0.70312-0.61328 1.2188-1.0273 3.2695-0.23047 6.6953-0.32031 10.281-0.26953zm25.492-9.0781c-4.7266-3.7266-9.3516-6.0977-14.547-7.4648-0.085937-0.023437-0.17578-0.035156-0.26562-0.042969-1.4844-0.10937-2.9922-0.19531-4.4453-0.25781-0.71094-0.050781-1.3359 0.17578-1.9336 0.72266-0.48438 0.48828-0.74219 1.1055-0.74219 1.793v14.703c0 1.3906 1.1328 2.5195 2.5195 2.5195h18.52c0.80078 0 1.4453-0.64844 1.4453-1.4453v-9.3906c0-0.44141-0.20312-0.85938-0.55078-1.1367zm-2.3398 9.0781h-16.699v-13.934c1.2891 0.058594 2.5977 0.13672 3.8867 0.22656 4.6055 1.2305 8.5898 3.2422 12.809 6.4766zm-1.457-31.41c0 0.80078-0.64844 1.4453-1.4453 1.4453-0.80078 0-1.457-0.64844-1.457-1.4453 0-0.80078 0.63672-1.4453 1.4375-1.4453h0.019531c0.79688 0 1.4453 0.64844 1.4453 1.4453z"/>
<text x="0.0" y="117.5" font-size="5.0" font-weight="bold" font-family="Arbeit Regular, Helvetica, Arial-Unicode, Arial, Sans-serif" fill="#FFFFFF">Created by hanis tusiyani</text><text x="0.0" y="122.5" font-size="5.0" font-weight="bold" font-family="Arbeit Regular, Helvetica, Arial-Unicode, Arial, Sans-serif" fill="#000000">from Noun Project</text></svg>